{
  "accessors": [
    {
      "bufferView": 0,
      "componentType": 5126,
      "count": 4,
      "max": [
        521.5423583984375,
        547.9903564453125,
        404.6429748535156
      ],
      "min": [
        -491.9234313964844,
        -583.048828125,
        404.6427307128906
      ],
      "type": "VEC3"
    },
    {
      "bufferView": 0,
      "byteOffset": 12,
      "componentType": 5126,
      "count": 4,
      "type": "VEC3"
    },
    {
      "bufferView": 0,
      "byteOffset": 24,
      "componentType": 5126,
      "count": 4,
      "type": "VEC2"
    },
    {
      "bufferView": 0,
      "byteOffset": 32,
      "componentType": 5126,
      "count": 4,
      "type": "VEC2"
    },
    {
      "bufferView": 0,
      "byteOffset": 40,
      "componentType": 5126,
      "count": 4,
      "type": "VEC2"
    },
    {
      "bufferView": 1,
      "componentType": 5125,
      "count": 6,
      "type": "SCALAR"
    },
    {
      "bufferView": 0,
      "byteOffset": 192,
      "componentType": 5126,
      "count": 210,
      "max": [
        103.82151794433594,
        -510.9481201171875,
        117.78289031982422
      ],
      "min": [
        -76.97516632080078,
        -562.1598510742188,
        -0.047286391258239746
      ],
      "type": "VEC3"
    },
    {
      "bufferView": 0,
      "byteOffset": 204,
      "componentType": 5126,
      "count": 210,
      "type": "VEC3"
    },
    {
      "bufferView": 0,
      "byteOffset": 216,
      "componentType": 5126,
      "count": 210,
      "type": "VEC2"
    },
    {
      "bufferView": 0,
      "byteOffset": 224,
      "componentType": 5126,
      "count": 210,
      "type": "VEC2"
    },
    {
      "bufferView": 0,
      "byteOffset": 232,
      "componentType": 5126,
      "count": 210,
      "type": "VEC2"
    },
    {
      "bufferView": 1,
      "byteOffset": 24,
      "componentType": 5125,
      "count": 468,
      "type": "SCALAR"
    },
    {
      "bufferView": 0,
      "byteOffset": 10272,
      "componentType": 5126,
      "count": 4,
      "max": [
        429.3063659667969,
        554.3367919921875,
        0.03352522850036621
      ],
      "min": [
        -399.6875305175781,
        -558.4847412109375,
        0.03352522850036621
      ],
      "type": "VEC3"
    },
    {
      "bufferView": 0,
      "byteOffset": 10284,
      "componentType": 5126,
      "count": 4,
      "type": "VEC3"
    },
    {
      "bufferView": 0,
      "byteOffset": 10296,
      "componentType": 5126,
      "count": 4,
      "type": "VEC2"
    },
    {
      "bufferView": 0,
      "byteOffset": 10304,
      "componentType": 5126,
      "count": 4,
      "type": "VEC2"
    },
    {
      "bufferView": 0,
      "byteOffset": 10312,
      "componentType": 5126,
      "count": 4,
      "type": "VEC2"
    },
    {
      "bufferView": 1,
      "byteOffset": 1896,
      "componentType": 5125,
      "count": 6,
      "type": "SCALAR"
    },
    {
      "bufferView": 0,
      "byteOffset": 10464,
      "componentType": 5126,
      "count": 21621,
      "max": [
        553.0285034179688,
        543.8935546875,
        404.9515075683594
      ],
      "min": [
        -522.3756103515625,
        -608.14453125,
        -0.8881797194480896
      ],
      "type": "VEC3"
    },
    {
      "bufferView": 0,
      "byteOffset": 10476,
      "componentType": 5126,
      "count": 21621,
      "type": "VEC3"
    },
    {
      "bufferView": 0,
      "byteOffset": 10488,
      "componentType": 5126,
      "count": 21621,
      "type": "VEC2"
    },
    {
      "bufferView": 0,
      "byteOffset": 10496,
      "componentType": 5126,
      "count": 21621,
      "type": "VEC2"
    },
    {
      "bufferView": 0,
      "byteOffset": 10504,
      "componentType": 5126,
      "count": 21621,
      "type": "VEC2"
    },
    {
      "bufferView": 1,
      "byteOffset": 1920,
      "componentType": 5125,
      "count": 50007,
      "type": "SCALAR"
    }
  ],
  "asset": {
    "version": "2.0"
  },
  "bufferViews": [
    {
      "buffer": 0,
      "byteLength": 1048272,
      "byteStride": 48,
      "target": 34962
    },
    {
      "buffer": 0,
      "byteLength": 201948,
      "byteOffset": 1048272,
      "target": 34963
    }
  ],
  "buffers": [
    {
      "byteLength": 1250220,
      "uri": "room3.bin"
    }
  ],
  "images": [
    {
      "uri": "ceiling_emissive.png"
    },
    {
      "uri": "Ceiling_Normal.png"
    },
    {
      "uri": "Ceilingbasecolortexture.png"
    },
    {
      "uri": "Ceilingmetallicroughnesstex.png"
    },
    {
      "uri": "Fireplace_Normal.png"
    },
    {
      "uri": "Fireplacebasecolortexture.png"
    },
    {
      "uri": "Fireplacemetallicroughnesstex.png"
    },
    {
      "uri": "Floorbasecolortexture.png"
    },
    {
      "uri": "Floormetallicroughnesstex.png"
    },
    {
      "uri": "Walls_Normal.png"
    },
    {
      "uri": "Wallsbasecolortexture.png"
    },
    {
      "uri": "Wallsmetallicroughnesstex.png"
    }
  ],
  "materials": [
    {
      "emissiveTexture": {
        "index": 0
      },
      "name": "Ceiling",
      "normalTexture": {
        "index": 1,
        "scale": -1.0
      },
      "pbrMetallicRoughness": {
        "baseColorTexture": {
          "index": 2
        },
        "metallicFactor": 0.0,
        "metallicRoughnessTexture": {
          "index": 3
        },
        "roughnessFactor": 0.0
      }
    },
    {
      "name": "Fireplace",
      "normalTexture": {
        "index": 4,
        "scale": -1.0
      },
      "pbrMetallicRoughness": {
        "baseColorTexture": {
          "index": 5
        },
        "metallicFactor": 0.0,
        "metallicRoughnessTexture": {
          "index": 6
        },
        "roughnessFactor": 0.0
      }
    },
    {
      "name": "Floor",
      "pbrMetallicRoughness": {
        "baseColorFactor": [
          0.5,
          0.5,
          0.5,
          1.0
        ],
        "baseColorTexture": {
          "index": 7
        },
        "metallicFactor": 0.0,
        "metallicRoughnessTexture": {
          "index": 8
        },
        "roughnessFactor": 0.0
      }
    },
    {
      "name": "Walls",
      "normalTexture": {
        "index": 9,
        "scale": -1.0
      },
      "pbrMetallicRoughness": {
        "baseColorTexture": {
          "index": 10
        },
        "metallicFactor": 0.0,
        "metallicRoughnessTexture": {
          "index": 11
        },
        "roughnessFactor": 0.0
      }
    }
  ],
  "meshes": [
    {
      "name": "Final Room",
      "primitives": [
        {
          "attributes": {
            "NORMAL": 1,
            "POSITION": 0,
            "TEXCOORD_0": 2,
            "TEXCOORD_1": 3,
            "TEXCOORD_2": 4
          },
          "indices": 5,
          "material": 0,
          "mode": 4
        },
        {
          "attributes": {
            "NORMAL": 7,
            "POSITION": 6,
            "TEXCOORD_0": 8,
            "TEXCOORD_1": 9,
            "TEXCOORD_2": 10
          },
          "indices": 11,
          "material": 1,
          "mode": 4
        },
        {
          "attributes": {
            "NORMAL": 13,
            "POSITION": 12,
            "TEXCOORD_0": 14,
            "TEXCOORD_1": 15,
            "TEXCOORD_2": 16
          },
          "indices": 17,
          "material": 2,
          "mode": 4
        },
        {
          "attributes": {
            "NORMAL": 19,
            "POSITION": 18,
            "TEXCOORD_0": 20,
            "TEXCOORD_1": 21,
            "TEXCOORD_2": 22
          },
          "indices": 23,
          "material": 3,
          "mode": 4
        }
      ]
    }
  ],
  "nodes": [
    {
      "matrix": [
        0.01,
        0.0,
        0.0,
        0.0,
        0.0,
        0.01,
        0.0,
        0.0,
        0.0,
        0.0,
        0.01,
        0.0,
        0.0,
        0.0,
        0.0,
        1.0
      ],
      "mesh": 0,
      "name": "Final Room"
    },
    {
      "children": [
        0
      ],
      "matrix": [
        1.0,
        0.0,
        0.0,
        0.0,
        0.0,
        0.0,
        -1.0,
        0.0,
        0.0,
        1.0,
        0.0,
        0.0,
        -0.09291168212890626,
        -0.0058578491210937505,
        -0.14407806396484377,
        1.0
      ]
    }
  ],
  "samplers": [
    {
      "magFilter": 9729,
      "minFilter": 9729,
      "wrapS": 10497,
      "wrapT": 10497
    },
    {
      "magFilter": 9729,
      "minFilter": 9729,
      "wrapS": 10497,
      "wrapT": 10497
    },
    {
      "magFilter": 9729,
      "minFilter": 9729,
      "wrapS": 10497,
      "wrapT": 10497
    },
    {
      "magFilter": 9729,
      "minFilter": 9729,
      "wrapS": 10497,
      "wrapT": 10497
    },
    {
      "magFilter": 9729,
      "minFilter": 9729,
      "wrapS": 10497,
      "wrapT": 10497
    },
    {
      "magFilter": 9729,
      "minFilter": 9729,
      "wrapS": 10497,
      "wrapT": 10497
    },
    {
      "magFilter": 9729,
      "minFilter": 9729,
      "wrapS": 10497,
      "wrapT": 10497
    },
    {
      "magFilter": 9729,
      "minFilter": 9729,
      "wrapS": 10497,
      "wrapT": 10497
    },
    {
      "magFilter": 9729,
      "minFilter": 9729,
      "wrapS": 10497,
      "wrapT": 10497
    },
    {
      "magFilter": 9729,
      "minFilter": 9729,
      "wrapS": 10497,
      "wrapT": 10497
    },
    {
      "magFilter": 9729,
      "minFilter": 9729,
      "wrapS": 10497,
      "wrapT": 10497
    },
    {
      "magFilter": 9729,
      "minFilter": 9729,
      "wrapS": 10497,
      "wrapT": 10497
    }
  ],
  "scenes": [
    {
      "nodes": [
        1
      ]
    }
  ],
  "textures": [
    {
      "name": "texture_source0_sampler0",
      "sampler": 0,
      "source": 0
    },
    {
      "name": "texture_source1_sampler1",
      "sampler": 1,
      "source": 1
    },
    {
      "name": "texture_source2_sampler2",
      "sampler": 2,
      "source": 2
    },
    {
      "name": "texture_source3_sampler3",
      "sampler": 3,
      "source": 3
    },
    {
      "name": "texture_source4_sampler4",
      "sampler": 4,
      "source": 4
    },
    {
      "name": "texture_source5_sampler5",
      "sampler": 5,
      "source": 5
    },
    {
      "name": "texture_source6_sampler6",
      "sampler": 6,
      "source": 6
    },
    {
      "name": "texture_source7_sampler7",
      "sampler": 7,
      "source": 7
    },
    {
      "name": "texture_source8_sampler8",
      "sampler": 8,
      "source": 8
    },
    {
      "name": "texture_source9_sampler9",
      "sampler": 9,
      "source": 9
    },
    {
      "name": "texture_source10_sampler10",
      "sampler": 10,
      "source": 10
    },
    {
      "name": "texture_source11_sampler11",
      "sampler": 11,
      "source": 11
    }
  ]
}
