{
	"accessors": [
		{
			"bufferView": 0,
			"componentType": 5126,
			"count": 4,
			"max": [
				521.5423583984375,
				547.9903564453125,
				404.6429748535156
			],
			"min": [
				-491.9234313964844,
				-583.048828125,
				404.6427307128906
			],
			"type": "VEC3"
		},
		{
			"bufferView": 0,
			"byteOffset": 12,
			"componentType": 5126,
			"count": 4,
			"type": "VEC3"
		},
		{
			"bufferView": 0,
			"byteOffset": 24,
			"componentType": 5126,
			"count": 4,
			"type": "VEC2"
		},
		{
			"bufferView": 0,
			"byteOffset": 32,
			"componentType": 5126,
			"count": 4,
			"type": "VEC2"
		},
		{
			"bufferView": 0,
			"byteOffset": 40,
			"componentType": 5126,
			"count": 4,
			"type": "VEC2"
		},
		{
			"bufferView": 1,
			"componentType": 5125,
			"count": 6,
			"type": "SCALAR"
		},
		{
			"bufferView": 0,
			"byteOffset": 192,
			"componentType": 5126,
			"count": 210,
			"max": [
				103.82151794433594,
				-510.9481201171875,
				117.78289031982422
			],
			"min": [
				-76.97516632080078,
				-562.1598510742188,
				-0.047286391258239746
			],
			"type": "VEC3"
		},
		{
			"bufferView": 0,
			"byteOffset": 204,
			"componentType": 5126,
			"count": 210,
			"type": "VEC3"
		},
		{
			"bufferView": 0,
			"byteOffset": 216,
			"componentType": 5126,
			"count": 210,
			"type": "VEC2"
		},
		{
			"bufferView": 0,
			"byteOffset": 224,
			"componentType": 5126,
			"count": 210,
			"type": "VEC2"
		},
		{
			"bufferView": 0,
			"byteOffset": 232,
			"componentType": 5126,
			"count": 210,
			"type": "VEC2"
		},
		{
			"bufferView": 1,
			"byteOffset": 24,
			"componentType": 5125,
			"count": 468,
			"type": "SCALAR"
		},
		{
			"bufferView": 0,
			"byteOffset": 10272,
			"componentType": 5126,
			"count": 4,
			"max": [
				429.3063659667969,
				554.3367919921875,
				0.03352522850036621
			],
			"min": [
				-399.6875305175781,
				-558.4847412109375,
				0.03352522850036621
			],
			"type": "VEC3"
		},
		{
			"bufferView": 0,
			"byteOffset": 10284,
			"componentType": 5126,
			"count": 4,
			"type": "VEC3"
		},
		{
			"bufferView": 0,
			"byteOffset": 10296,
			"componentType": 5126,
			"count": 4,
			"type": "VEC2"
		},
		{
			"bufferView": 0,
			"byteOffset": 10304,
			"componentType": 5126,
			"count": 4,
			"type": "VEC2"
		},
		{
			"bufferView": 0,
			"byteOffset": 10312,
			"componentType": 5126,
			"count": 4,
			"type": "VEC2"
		},
		{
			"bufferView": 1,
			"byteOffset": 1896,
			"componentType": 5125,
			"count": 6,
			"type": "SCALAR"
		},
		{
			"bufferView": 0,
			"byteOffset": 10464,
			"componentType": 5126,
			"count": 21621,
			"max": [
				553.0285034179688,
				543.8935546875,
				404.9515075683594
			],
			"min": [
				-522.3756103515625,
				-608.14453125,
				-0.8881797194480896
			],
			"type": "VEC3"
		},
		{
			"bufferView": 0,
			"byteOffset": 10476,
			"componentType": 5126,
			"count": 21621,
			"type": "VEC3"
		},
		{
			"bufferView": 0,
			"byteOffset": 10488,
			"componentType": 5126,
			"count": 21621,
			"type": "VEC2"
		},
		{
			"bufferView": 0,
			"byteOffset": 10496,
			"componentType": 5126,
			"count": 21621,
			"type": "VEC2"
		},
		{
			"bufferView": 0,
			"byteOffset": 10504,
			"componentType": 5126,
			"count": 21621,
			"type": "VEC2"
		},
		{
			"bufferView": 1,
			"byteOffset": 1920,
			"componentType": 5125,
			"count": 50007,
			"type": "SCALAR"
		}
	],
	"asset": {
		"version": "2.0"
	},
	"bufferViews": [
		{
			"buffer": 0,
			"byteLength": 1048272,
			"byteStride": 48,
			"target": 34962
		},
		{
			"buffer": 0,
			"byteLength": 201948,
			"byteOffset": 1048272,
			"target": 34963
		}
	],
	"buffers": [
		{
			"byteLength": 1250220,
			"uri": "final_room.bin"
		}
	],
	"extensions": {
		"KHR_materials_variants": {
			"variants": [
				{
					"name": "Material variant"
				}
			]
		}
	},
	"extensionsRequired": [
		"KHR_texture_basisu"
	],
	"extensionsUsed": [
		"KHR_texture_transform",
		"KHR_texture_basisu",
		"KHR_materials_emissive_strength",
		"KHR_materials_ior",
		"KHR_materials_variants"
	],
	"images": [
		{
			"name": "Ceiling_BaseColor",
			"uri": "Ceiling_BaseColor.png"
		},
		{
			"name": "Ceiling_Emissive",
			"uri": "Ceiling_Emissive.png"
		},
		{
			"name": "Ceiling_Normal",
			"uri": "Ceiling_Normal.png"
		},
		{
			"name": "Ceiling_ORM",
			"uri": "Ceiling_ORM.png"
		},
		{
			"name": "Fireplace_BaseColor",
			"uri": "Fireplace_BaseColor.png"
		},
		{
			"name": "Fireplace_Normal",
			"uri": "Fireplace_Normal.png"
		},
		{
			"name": "Fireplace_ORM",
			"uri": "Fireplace_ORM.png"
		},
		{
			"name": "Floor_BaseColor",
			"uri": "Floor_BaseColor.png"
		},
		{
			"name": "Floor_Normal",
			"uri": "Floor_Normal.png"
		},
		{
			"name": "Floor_ORM",
			"uri": "Floor_ORM.png"
		},
		{
			"name": "Walls_BaseColor",
			"uri": "Walls_BaseColor.png"
		},
		{
			"name": "Walls_Normal",
			"uri": "Walls_Normal.png"
		},
		{
			"name": "Walls_ORM",
			"uri": "Walls_ORM.png"
		}
	],
	"materials": [
		{
			"alphaMode": "OPAQUE",
			"emissiveFactor": [
				1,
				1,
				1
			],
			"emissiveTexture": {
				"extensions": {
					"KHR_texture_transform": {
						"texCoord": 1
					}
				},
				"index": 1,
				"texCoord": 1
			},
			"extensions": {
				"KHR_materials_emissive_strength": {
					"emissiveStrength": 2
				}
			},
			"name": "Ceiling",
			"normalTexture": {
				"extensions": {
					"KHR_texture_transform": {
						"texCoord": 1
					}
				},
				"index": 2,
				"scale": 1.0,
				"texCoord": 1
			},
			"pbrMetallicRoughness": {
				"baseColorTexture": {
					"extensions": {
						"KHR_texture_transform": {
							"texCoord": 1
						}
					},
					"index": 0,
					"texCoord": 1
				},
				"metallicFactor": 1,
				"metallicRoughnessTexture": {
					"extensions": {
						"KHR_texture_transform": {
							"texCoord": 1
						}
					},
					"index": 3,
					"texCoord": 1
				},
				"roughnessFactor": 0.9
			}
		},
		{
			"name": "Fireplace",
			"normalTexture": {
				"index": 5,
				"scale": 1.0,
				"texCoord": 1
			},
			"pbrMetallicRoughness": {
				"baseColorTexture": {
					"index": 4,
					"texCoord": 1
				},
				"metallicFactor": 1,
				"metallicRoughnessTexture": {
					"index": 6,
					"texCoord": 1
				},
				"roughnessFactor": 0.9
			}
		},
		{
			"alphaMode": "OPAQUE",
			"extensions": {
				"KHR_materials_ior": {
					"ior": 1.5
				}
			},
			"name": "Floor",
			"normalTexture": {
				"index": 8,
				"scale": 1.0,
				"texCoord": 1
			},
			"pbrMetallicRoughness": {
				"baseColorFactor": [
					1,
					1,
					1,
					1
				],
				"baseColorTexture": {
					"index": 7,
					"texCoord": 1
				},
				"metallicFactor": 1,
				"metallicRoughnessTexture": {
					"index": 9,
					"texCoord": 1
				},
				"roughnessFactor": 0.7
			}
		},
		{
			"alphaMode": "OPAQUE",
			"name": "Walls",
			"normalTexture": {
				"index": 11,
				"scale": 1.0,
				"texCoord": 1
			},
			"pbrMetallicRoughness": {
				"baseColorTexture": {
					"extensions": {
						"KHR_texture_transform": {
							"texCoord": 1
						}
					},
					"index": 10
				},
				"metallicFactor": 1,
				"metallicRoughnessTexture": {
					"extensions": {
						"KHR_texture_transform": {
							"texCoord": 1
						}
					},
					"index": 12
				},
				"roughnessFactor": 0.7
			}
		}
	],
	"meshes": [
		{
			"name": "final_room",
			"primitives": [
				{
					"attributes": {
						"NORMAL": 1,
						"POSITION": 0,
						"TEXCOORD_0": 2,
						"TEXCOORD_1": 3,
						"TEXCOORD_2": 4
					},
					"indices": 5,
					"material": 0,
					"mode": 4
				},
				{
					"attributes": {
						"NORMAL": 7,
						"POSITION": 6,
						"TEXCOORD_0": 8,
						"TEXCOORD_1": 9,
						"TEXCOORD_2": 10
					},
					"indices": 11,
					"material": 1,
					"mode": 4
				},
				{
					"attributes": {
						"NORMAL": 13,
						"POSITION": 12,
						"TEXCOORD_0": 14,
						"TEXCOORD_1": 15,
						"TEXCOORD_2": 16
					},
					"indices": 17,
					"material": 2,
					"mode": 4
				},
				{
					"attributes": {
						"NORMAL": 19,
						"POSITION": 18,
						"TEXCOORD_0": 20,
						"TEXCOORD_1": 21,
						"TEXCOORD_2": 22
					},
					"indices": 23,
					"material": 3,
					"mode": 4
				}
			]
		}
	],
	"nodes": [
		{
			"matrix": [
				0.01,
				0.0,
				0.0,
				0.0,
				0.0,
				0.01,
				0.0,
				0.0,
				0.0,
				0.0,
				0.01,
				0.0,
				0.0,
				0.0,
				0.0,
				1.0
			],
			"mesh": 0,
			"name": "final_room"
		},
		{
			"children": [
				0
			],
			"matrix": [
				1.0,
				0.0,
				0.0,
				0.0,
				0.0,
				0.0,
				-1.0,
				0.0,
				0.0,
				1.0,
				0.0,
				0.0,
				-0.17136856079101562,
				-0.0058578491210937505,
				-0.2187974739074707,
				1.0
			]
		}
	],
	"scenes": [
		{
			"nodes": [
				1
			]
		}
	],
	"textures": [
		{
			"name": "Ceiling_BaseColor",
			"source": 0
		},
		{
			"name": "Ceiling_Emissive",
			"source": 1
		},
		{
			"name": "Ceiling_Normal",
			"source": 2
		},
		{
			"name": "Ceiling_ORM",
			"source": 3
		},
		{
			"name": "Fireplace_BaseColor",
			"source": 4
		},
		{
			"name": "Fireplace_Normal",
			"source": 5
		},
		{
			"name": "Fireplace_ORM",
			"source": 6
		},
		{
			"name": "Floor_BaseColor",
			"source": 7
		},
		{
			"name": "Floor_Normal",
			"source": 8
		},
		{
			"name": "Floor_ORM",
			"source": 9
		},
		{
			"name": "Walls_BaseColor",
			"source": 10
		},
		{
			"name": "Walls_Normal",
			"source": 11
		},
		{
			"name": "Walls_ORM",
			"source": 12
		}
	]
}